<?xml version="1.0" standalone="no"?>
<!DOCTYPE svg PUBLIC "-//W3C//DTD SVG 20010904//EN"
 "http://www.w3.org/TR/2001/REC-SVG-20010904/DTD/svg10.dtd">
<svg version="1.0" xmlns="http://www.w3.org/2000/svg"
 width="128.000000pt" height="128.000000pt" viewBox="0 0 128.000000 128.000000"
 preserveAspectRatio="xMidYMid meet">
<metadata>
Created by potrace 1.14, written by Peter Selinger 2001-2017
</metadata>
<g transform="translate(0.000000,128.000000) scale(0.100000,-0.100000)"
fill="#000000" stroke="none">
<path d="M815 1266 c-59 -27 -701 -398 -735 -425 -63 -49 -78 -94 -79 -235 -2
-102 1 -127 14 -140 9 -9 22 -16 30 -16 7 0 23 -8 35 -18 33 -27 19 -63 -33
-88 l-42 -19 1 -97 c0 -85 3 -101 25 -132 13 -20 42 -49 63 -64 l39 -27 451
-3 c504 -3 507 -3 566 65 41 47 51 74 55 158 3 88 -5 111 -44 120 -64 14 -73
80 -15 98 49 16 59 31 59 88 0 44 4 58 26 82 54 59 61 156 18 233 -59 108 -57
106 -107 100 -34 -4 -51 -1 -64 11 -24 22 -23 40 8 76 29 35 27 56 -13 120
-34 56 -62 86 -97 104 -41 21 -125 26 -161 9z m114 -100 c15 -8 36 -27 46 -42
17 -26 17 -30 0 -75 -19 -55 -14 -111 14 -146 28 -34 83 -63 118 -63 26 0 36
-6 49 -32 9 -17 18 -47 20 -66 l3 -35 -32 31 c-48 46 -95 62 -187 62 -47 0
-79 4 -76 9 10 16 -12 58 -33 64 -28 7 -61 -19 -61 -49 l0 -24 -139 0 c-148 0
-171 -7 -171 -50 0 -10 7 -26 16 -34 13 -14 52 -16 270 -16 316 0 328 -4 337
-114 4 -43 2 -47 -29 -65 -88 -52 -87 -186 2 -246 25 -17 30 -27 28 -55 -5
-60 -14 -80 -47 -100 -30 -19 -52 -20 -455 -20 -299 0 -430 3 -445 11 -36 20
-53 50 -56 98 -1 41 1 48 28 63 16 9 39 35 51 58 36 70 17 142 -50 192 -22 16
-30 30 -30 53 0 86 44 125 142 125 59 0 88 19 83 53 -6 32 -26 46 -73 49 l-46
3 304 174 c403 231 365 214 419 187z"/>
<path d="M715 1007 c-19 -27 -19 -42 1 -61 20 -20 48 -20 68 0 19 19 20 35 4
57 -20 27 -55 29 -73 4z"/>
<path d="M810 617 c-26 -13 -35 -51 -17 -74 13 -17 62 -16 76 1 16 19 8 57
-15 73 -15 10 -24 10 -44 0z"/>
<path d="M797 432 c-22 -24 -21 -45 3 -67 45 -40 105 20 65 65 -23 25 -47 25
-68 2z"/>
<path d="M813 270 c-43 -17 -38 -81 7 -93 27 -7 62 27 58 55 -4 29 -38 48 -65
38z"/>
</g>
</svg>
